<?xml version="1.0" standalone="no"?>
<!DOCTYPE svg PUBLIC "-//W3C//DTD SVG 20010904//EN"
 "http://www.w3.org/TR/2001/REC-SVG-20010904/DTD/svg10.dtd">
<svg version="1.0" xmlns="http://www.w3.org/2000/svg"
 width="48.000000pt" height="48.000000pt" viewBox="0 0 48.000000 48.000000"
 preserveAspectRatio="xMidYMid meet">

<g transform="translate(0.000000,48.000000) scale(0.100000,-0.100000)"
fill="#000000" stroke="none">
<path d="M160 467 c-49 -16 -133 -102 -148 -153 -28 -94 -8 -169 63 -239 101
-102 229 -102 330 0 102 101 102 229 0 330 -70 71 -152 91 -245 62z m113 -68
c26 -12 47 -47 47 -80 0 -31 -44 -69 -80 -69 -36 0 -80 38 -80 69 0 31 20 68
44 79 28 14 40 14 69 1z m51 -200 c13 -7 30 -25 37 -41 10 -25 9 -32 -10 -52
-50 -53 -172 -53 -222 0 -19 20 -20 27 -10 52 7 16 22 34 34 40 30 14 140 15
171 1z"/>
</g>
</svg>
